# xmcd
#
# Track frame offsets:
# 150
# 12987
# 33145
# 49627
# 66575
# 87485
# 104745
# 124312
# 141895
# 157122
# 174525
# 191005
# 206997
# 221210
# 237412
# 253847
# 271847
# 289090
# 302330
#
# Disc length: 4252 seconds
#
#
# Revision: 2
# Processed by: cddbd v1.5.1PL0 Copyright (c) Steve Scherf et al.
# Submitted via: FreeRIP 2.80 
#
DISCID=2b109a13
DTITLE=LeAnn Rimes - Greatest Hits
DYEAR=2003
DGENRE=Country
TTITLE0=Blue
TTITLE1=How Do I Live
TTITLE2=Can't Fight The Moonlight (Graham Stack Radio Edit)
TTITLE3=One Way Ticket (Because I Can)
TTITLE4=Commitment
TTITLE5=I Need You
TTITLE6=Written In The Stars (Duet With Elton John)
TTITLE7=Unchained Melody
TTITLE8=The Light In Your Eyes
TTITLE9=On The Side Of Angels
TTITLE10=You Light Up My Life
TTITLE11=Nothin' New Under The Moon
TTITLE12=Big Deal
TTITLE13=Life Goes On
TTITLE14=We Can
TTITLE15=Last Thing On My Mind (Duet With Ronan Keating)
TTITLE16=This Love
TTITLE17=Crazy
TTITLE18=O Holy Night
EXTD=YEAR: 2003
EXTT0=
EXTT1=
EXTT2=
EXTT3=
EXTT4=
EXTT5=
EXTT6=
EXTT7=
EXTT8=
EXTT9=
EXTT10=
EXTT11=
EXTT12=
EXTT13=
EXTT14=
EXTT15=
EXTT16=
EXTT17=
EXTT18=
PLAYORDER=
